<?xml version="1.0" encoding="UTF-8"?>
<svg width="752pt" height="752pt" version="1.1" viewBox="0 0 752 752" xmlns="http://www.w3.org/2000/svg">
 <path d="m499.65 386.4c0 20.426-16.551 36.977-36.977 36.977s-36.977-16.551-36.977-36.977c0-20.426 16.551-36.977 36.977-36.977s36.977 16.551 36.977 36.977zm-76.762 40.734c3.6094-2.2031 7.4336-4.207 11.457-5.9805 7.5 6.0977 17.07 9.7383 27.492 9.7383 12.844 0 24.383-5.5469 32.387-14.363 1.7852 0.53516 3.5078 1.1367 5.1602 1.7852 0.71875 13.211 7.0312 24.938 16.617 32.836-20.543 11.641-38.43 29.41-47.133 47.266-7.582-20.059-32.418-34.473-61.012-40.387 8.5039-7.8125 14.113-18.699 15.031-30.895zm-170.18-8.8516c1.6367-0.63281 3.3242-1.2344 5.0781-1.7539 7.9844 8.8203 19.543 14.363 32.387 14.363 10.422 0 19.977-3.6562 27.492-9.7383 4.207 1.8555 8.1836 3.9766 11.941 6.2812 1.0039 12.074 6.582 22.848 15 30.582-28.793 5.9453-53.781 20.527-61.164 40.82-8.6367-18.039-26.723-36.059-47.5-47.785 9.6172-7.8672 16-19.559 16.766-32.77zm-0.36719-31.883c0-20.426 16.551-36.977 36.977-36.977s36.977 16.551 36.977 36.977c0 20.426-16.551 36.977-36.977 36.977-20.422 0-36.977-16.566-36.977-36.977zm35.578 157.3c-0.015625-7.7148-0.015625-31.984-0.015625-32.367 0-22.297 26.039-41.188 61.93-47.5 7.4492 5.3281 16.551 8.4492 26.406 8.4492 9.8555 0 18.957-3.1406 26.406-8.4492 35.891 6.3281 61.93 25.203 61.93 47.5 0 0.41797-0.015625 27.66-0.035156 32.352-27.324 3.875-57.152 6.0117-88.402 6.0117-31.168-0.015625-60.945-2.1367-88.219-5.9961zm48.184-120.17c0-22.164 17.973-40.117 40.117-40.117 22.164 0 40.117 17.973 40.117 40.117 0 22.148-17.973 40.117-40.117 40.117-22.145 0-40.117-17.953-40.117-40.117zm6.6797-188c0-18.34 14.867-33.203 33.219-33.203 18.34 0 33.203 14.863 33.203 33.203s-14.863 33.203-33.203 33.203c-18.352 0.015625-33.219-14.867-33.219-33.203zm127 107.78c-2.3203-0.38281-4.6914-0.56641-7.1133-0.56641-24.117 0-43.66 19.543-43.66 43.66 0 11.258 4.2578 21.512 11.258 29.262-1.1172 0.51953-2.1562 1.0195-3.125 1.5195-1.4531 0.73438-2.8711 1.5039-4.293 2.3047-2.0547-23.949-22.148-42.738-46.633-42.738-24.551 0-44.676 18.891-46.648 42.941-2.457-1.3867-4.5273-2.4219-6.3125-3.1562l-1.6016-0.76953c7.0312-7.75 11.309-18.039 11.309-29.328 0-24.117-19.543-43.66-43.66-43.66-2.4062 0-4.7773 0.19922-7.082 0.56641l0.003907-21.766c7-1.5547 18.371-4.3945 20.66-4.5078v-8.8672c0-18.457 21.547-34.09 51.258-39.316 6.1641 4.4102 13.711 7 21.863 7 8.1523 0 15.699-2.5898 21.863-7 29.695 5.2266 51.258 20.859 51.258 39.316v8.8867c2.2695 0.11719 13.68 2.0547 20.676 3.125v23.094zm-60.945-49.891c-1.5859-3.4062-5.6445-4.875-9.0508-3.2891-3.4062 1.5859-4.875 5.6445-3.2891 9.0508l6.5469 16.402c5.9297 0.10156 11.773 0.23438 17.555 0.40234zm-65.688 0-11.742 22.547c5.7773-0.16797 11.625-0.30078 17.555-0.40234l6.5469-16.402c1.5859-3.4062 0.11719-7.4492-3.2891-9.0508s-7.4844-0.097656-9.0703 3.3086zm-97.055 122.16c0 21.578-17.504 39.082-39.082 39.082s-39.082-17.504-39.082-39.082 17.504-39.082 39.082-39.082c21.578-0.003906 39.082 17.5 39.082 39.082zm-106.89 56.801c2.8047-13.996 14.195-25.371 30.414-28.926 7.9844 11.84 21.527 19.609 36.879 19.609 8.9688 0 17.32-2.6562 24.301-7.2148 29.195 15.801 51.34 43.543 51.34 64.234l-0.015625 22.746c-78.898-12.027-135.7-38.766-142.92-70.449zm330.75 70.48-0.015625-22.781c0-20.695 22.148-48.434 51.34-64.234 6.9805 4.5586 15.332 7.2148 24.301 7.2148 15.316 0 28.812-7.7344 36.812-19.508 16.082 3.8242 27.441 15.898 30.398 29.98-8.3203 31.215-64.789 57.453-142.84 69.328zm36.027-127.07c0-21.578 17.488-39.082 39.082-39.082 21.578 0 39.082 17.504 39.082 39.082s-17.488 39.082-39.082 39.082c-21.578 0-39.082-17.484-39.082-39.082z"/>
</svg>
